<svg width="287" height="54" viewBox="0 0 287 54" fill="none" xmlns="http://www.w3.org/2000/svg">
<path d="M80.5265 43V36.3703L70.2991 24.8493V22.7876H76.6458L83.7605 31.0343L90.8349 22.7876H97.1816V24.8493L86.9945 36.3703V43H80.5265ZM101.56 43L99.2154 40.6554V22.7876H122.783V27.8407H105.683V30.6704H121.651V34.8746H105.683V37.9469H122.783V43H101.56ZM124.817 43V40.6149L135.57 22.7876H143.251L154.004 40.6149V43H147.698L145.959 39.766H132.862L131.124 43H124.817ZM135.772 34.3895H143.049L139.411 27.679L135.772 34.3895ZM156.023 43V22.7876H162.491V30.1853H175.346V22.7876H181.814V43H175.346V35.6023H162.491V43H156.023ZM197.159 43V22.7876H214.663L222.95 31.0747V40.6554L220.605 43H197.159ZM203.627 37.5831H216.482V33.0151L211.671 28.2045H203.627V37.5831ZM228.519 43L226.175 40.6554V22.7876H249.742V27.8407H232.643V30.6704H248.61V34.8746H232.643V37.9469H249.742V43H228.519ZM261.559 43L251.776 25.1322V22.7876H258.123L265.966 37.7852L273.848 22.7876H280.195V25.1322L270.372 43H261.559ZM278.995 43V37.5831H284.412V43H278.995Z" fill="white"/>
<path d="M171.715 52.1584L171.026 51.4695V46.9083L171.715 46.2193H175.837V48.2624H174.958V47.0508H171.941V51.327H175.837V52.1584H171.715ZM177.48 52.1584L176.791 51.4695V46.2193H177.706V51.327H180.687V46.2193H181.602V51.4695L180.913 52.1584H177.48ZM182.556 52.1584V46.2193H186.737L187.426 46.9083V48.9988L186.737 49.6878H185.253L187.45 51.5051V52.1584H186.785L183.946 49.6878H183.471V52.1584H182.556ZM183.471 48.8563H186.512V47.0508H183.471V48.8563ZM188.402 52.1584V51.327H192.144V49.8303L189.091 49.0464L188.402 48.3574V46.9083L189.091 46.2193H192.857V47.0508H189.317V48.2268L192.394 49.0226L193.059 49.6878V51.4695L192.37 52.1584H188.402ZM194.694 52.1584L194.005 51.4695V46.9083L194.694 46.2193H198.4L199.089 46.9083V51.4695L198.4 52.1584H194.694ZM194.92 51.327H198.174V47.0508H194.92V51.327ZM203.598 52.1584V46.2193H206.485L208.682 48.5356V51.4695L207.993 52.1584H203.598ZM204.513 51.327H207.767V48.8326L206.105 47.0508H204.513V51.327ZM210.319 52.1584L209.63 51.4695V46.2193H214.061V47.0508H210.545V48.7375H213.787V49.569H210.545V51.327H214.061V52.1584H210.319ZM218.574 52.1584V46.2193H222.755L223.444 46.9083V49.7234L222.755 50.4124H219.488V52.1584H218.574ZM219.488 49.5571H222.529V47.0508H219.488V49.5571ZM224.397 52.1584V46.2193H228.578L229.267 46.9083V48.9988L228.578 49.6878H227.093L229.29 51.5051V52.1584H228.625L225.786 49.6878H225.311V52.1584H224.397ZM225.311 48.8563H228.352V47.0508H225.311V48.8563ZM230.932 52.1584L230.243 51.4695V46.9083L230.932 46.2193H234.638L235.327 46.9083V51.4695L234.638 52.1584H230.932ZM231.158 51.327H234.412V47.0508H231.158V51.327ZM238.472 48.7019H241.204V51.4695L240.515 52.1584H236.964L236.275 51.4695V46.9083L236.964 46.2193H240.907V47.0508H237.189V51.327H240.325V49.5334H238.472V48.7019ZM242.156 52.1584V46.2193H246.337L247.026 46.9083V48.9988L246.337 49.6878H244.852L247.05 51.5051V52.1584H246.385L243.546 49.6878H243.071V52.1584H242.156ZM243.071 48.8563H246.111V47.0508H243.071V48.8563ZM250.885 46.2193L253.487 51.5883V52.1584H252.715L252.073 50.7331H248.819L248.177 52.1584H247.405V51.5883L250.006 46.2193H250.885ZM249.199 49.9016H251.693L250.446 47.1458L249.199 49.9016ZM254.078 52.1584V51.7071L255.087 46.2193H256.323L257.534 50.9231L258.758 46.2193H259.993L261.003 51.7071V52.1584H260.124L259.34 47.229L258.033 52.1584H257.035L255.741 47.229L254.957 52.1584H254.078ZM265.072 46.2193L267.673 51.5883V52.1584H266.901L266.26 50.7331H263.005L262.364 52.1584H261.592V51.5883L264.193 46.2193H265.072ZM263.385 49.9016H265.88L264.632 47.1458L263.385 49.9016ZM268.956 52.1584L268.267 51.4695V46.9083L268.956 46.2193H273.078V48.2624H272.199V47.0508H269.182V51.327H273.078V52.1584H268.956ZM269.312 53.4888V52.9068H272.448V53.4888H269.312ZM276.351 45.2453L275.235 45.6373H274.771V45.1622L276.553 44.5683H277.1V44.9484L278.216 44.5564H278.679V45.0315L276.898 45.6254H276.351V45.2453ZM277.159 46.2193L279.76 51.5883V52.1584H278.988L278.347 50.7331H275.092L274.451 52.1584H273.679V51.5883L276.28 46.2193H277.159ZM275.472 49.9016H277.967L276.719 47.1458L275.472 49.9016ZM281.043 52.1584L280.354 51.4695V46.9083L281.043 46.2193H284.749L285.438 46.9083V51.4695L284.749 52.1584H281.043ZM281.269 51.327H284.523V47.0508H281.269V51.327Z" fill="white"/>
<path fill-rule="evenodd" clip-rule="evenodd" d="M0 27.6176V34.6093L28.9137 20.2375L44.1034 27.4882V19.0723C44.1034 17.7775 43.3039 16.6122 42.238 16.0943L31.5786 11.0448C29.9796 10.2679 28.1142 10.2679 26.5153 11.0448L3.33107 22.5681C1.19919 23.345 0 25.4166 0 27.6176Z" fill="url(#paint0_linear_7_1637)"/>
<path fill-rule="evenodd" clip-rule="evenodd" d="M3.19788 22.4386C14.79 16.7417 20.6527 16.2238 28.9137 20.2375L44.1034 27.4882V19.0723C44.1034 17.7775 43.304 16.6122 42.238 16.0943L31.5786 11.0448C29.9797 10.2679 28.1143 10.2679 26.5154 11.0448L3.19788 22.4386Z" fill="url(#paint1_linear_7_1637)"/>
<path fill-rule="evenodd" clip-rule="evenodd" d="M61.1585 31.3724V24.3807L32.2448 38.7525L17.0551 31.5019V39.9178C17.0551 41.2125 17.8545 42.3778 18.9205 42.8957L29.5799 47.9452C31.1788 48.7221 33.0442 48.7221 34.6431 47.9452L57.8274 36.4219C59.9593 35.5156 61.1585 33.5735 61.1585 31.3724Z" fill="url(#paint2_linear_7_1637)"/>
<path fill-rule="evenodd" clip-rule="evenodd" d="M61.1585 31.3724V24.3807L32.2448 38.7525L17.0551 31.5019V39.9178C17.0551 41.2125 17.8545 42.3778 18.9205 42.8957L29.5799 47.9452C31.1788 48.7221 33.0442 48.7221 34.6431 47.9452L57.8274 36.4219C59.9593 35.5156 61.1585 33.5735 61.1585 31.3724Z" fill="url(#paint3_linear_7_1637)"/>
<path fill-rule="evenodd" clip-rule="evenodd" d="M57.9607 36.5514C46.3685 42.2483 40.5059 42.7662 32.2448 38.7525L17.0551 31.5018V39.9177C17.0551 41.2125 17.8546 42.3778 18.9205 42.8957L29.5799 47.9452C31.1789 48.722 33.0443 48.722 34.6432 47.9452L57.9607 36.5514Z" fill="url(#paint4_linear_7_1637)"/>
<defs>
<linearGradient id="paint0_linear_7_1637" x1="22.0075" y1="34.5594" x2="22.0075" y2="10.2708" gradientUnits="userSpaceOnUse">
<stop stop-color="#704695"/>
<stop offset="1" stop-color="#231631"/>
</linearGradient>
<linearGradient id="paint1_linear_7_1637" x1="44.0543" y1="18.8159" x2="3.21027" y2="18.8159" gradientUnits="userSpaceOnUse">
<stop stop-color="#87549D"/>
<stop offset="1" stop-color="#8B4C98"/>
</linearGradient>
<linearGradient id="paint2_linear_7_1637" x1="39.1661" y1="48.6519" x2="39.1661" y2="24.3634" gradientUnits="userSpaceOnUse">
<stop stop-color="#2F1636"/>
<stop offset="1" stop-color="#E71282"/>
</linearGradient>
<linearGradient id="paint3_linear_7_1637" x1="33.5083" y1="36.9382" x2="53.3142" y2="22.1056" gradientUnits="userSpaceOnUse">
<stop stop-color="#2F1636"/>
<stop offset="1" stop-color="#C64191"/>
</linearGradient>
<linearGradient id="paint4_linear_7_1637" x1="57.9633" y1="40.1065" x2="17.1193" y2="40.1065" gradientUnits="userSpaceOnUse">
<stop stop-color="#AB4D97"/>
<stop offset="1" stop-color="#C24F97"/>
</linearGradient>
</defs>
</svg>
