<svg width="247" height="51" viewBox="0 0 247 51" fill="none" xmlns="http://www.w3.org/2000/svg">
<path d="M64.931 24.8284C64.3569 24.032 63.6624 23.3931 62.8475 22.9116C62.0511 22.4115 61.2733 22.1615 60.5139 22.1615C59.7546 22.1615 59.0601 22.3652 58.4304 22.7727C57.8193 23.1616 57.3377 23.7079 56.9859 24.4117C56.6525 25.1155 56.4858 25.9118 56.4858 26.8008C56.4858 27.6898 56.6525 28.4954 56.9859 29.2177C57.3377 29.9215 57.8193 30.4771 58.4304 30.8845C59.0601 31.292 59.7546 31.4957 60.5139 31.4957C61.2177 31.4957 61.9678 31.292 62.7642 30.8845C63.579 30.4585 64.3013 29.9029 64.931 29.2177L68.6536 33.1903C67.5609 34.3941 66.2459 35.3571 64.7088 36.0794C63.1901 36.7832 61.6807 37.1351 60.1806 37.1351C58.2174 37.1351 56.4488 36.6998 54.8746 35.8294C53.3189 34.9404 52.0965 33.7181 51.2076 32.1624C50.3186 30.5882 49.8741 28.8288 49.8741 26.8841C49.8741 24.958 50.3278 23.2357 51.2353 21.717C52.1428 20.1798 53.3929 18.976 54.9857 18.1056C56.5969 17.2351 58.4119 16.7999 60.4306 16.7999C61.9122 16.7999 63.4031 17.1333 64.9032 17.8C66.4034 18.4482 67.6535 19.3187 68.6536 20.4113L64.931 24.8284ZM77.2296 21.217C79.4335 21.217 81.1467 21.717 82.369 22.7171C83.6098 23.6987 84.2303 25.0784 84.2303 26.8564V36.6906H78.0908V35.0515C77.1648 36.3294 75.7388 36.9684 73.8127 36.9684C72.2199 36.9684 70.9698 36.5424 70.0623 35.6905C69.1734 34.82 68.7289 33.6533 68.7289 32.1902C68.7289 30.69 69.2289 29.5511 70.229 28.7732C71.2291 27.9954 72.6922 27.5879 74.6183 27.5509H78.0908C78.0723 27.0138 77.8593 26.6063 77.4519 26.3285C77.063 26.0322 76.4888 25.8841 75.7295 25.8841C75.1369 25.8841 74.4238 25.9674 73.5904 26.1341C72.7755 26.3008 71.9514 26.5415 71.118 26.8564L69.729 22.6893C71.0254 22.2078 72.3125 21.8467 73.5904 21.6059C74.8868 21.3466 76.0999 21.217 77.2296 21.217ZM75.9795 32.9958C76.387 32.9958 76.7759 32.8939 77.1463 32.6902C77.5352 32.4865 77.8501 32.1994 78.0908 31.829V30.44H75.924C75.035 30.44 74.5905 30.8475 74.5905 31.6624C74.5905 32.0883 74.7109 32.4217 74.9517 32.6624C75.1924 32.8847 75.535 32.9958 75.9795 32.9958ZM87.0161 16.0776H93.2667V36.6906H87.0161V16.0776ZM105.594 27.7731C105.186 26.8101 104.538 26.3285 103.649 26.3285C103.038 26.3285 102.547 26.5878 102.177 27.1064C101.825 27.6064 101.649 28.2824 101.649 29.1343C101.649 30.0048 101.825 30.6993 102.177 31.2179C102.547 31.7179 103.038 31.9679 103.649 31.9679C104.575 31.9679 105.195 31.4216 105.51 30.3289L110.566 32.6624C110.011 34.0144 109.094 35.0608 107.816 35.8016C106.557 36.5424 105.056 36.9128 103.316 36.9128C101.723 36.9128 100.325 36.598 99.1207 35.9683C97.9169 35.3201 96.9816 34.4126 96.3149 33.2458C95.6667 32.0791 95.3426 30.7178 95.3426 29.1621C95.3426 27.5879 95.6667 26.2082 96.3149 25.0229C96.9816 23.8191 97.9169 22.893 99.1207 22.2448C100.343 21.5966 101.76 21.2725 103.371 21.2725C105.019 21.2725 106.473 21.6615 107.733 22.4393C108.992 23.1986 109.936 24.2728 110.566 25.6618L105.594 27.7731ZM127.638 21.4948V36.6906H121.388V34.5793C120.888 35.3571 120.258 35.9498 119.499 36.3572C118.74 36.7647 117.878 36.9684 116.915 36.9684C115.878 36.9684 114.961 36.7276 114.165 36.2461C113.369 35.7646 112.739 35.0886 112.276 34.2181C111.831 33.3477 111.609 32.3383 111.609 31.1901V21.4948H117.86V29.3844C117.86 30.0141 118.008 30.5234 118.304 30.9123C118.619 31.2827 119.027 31.4679 119.527 31.4679C120.101 31.4679 120.554 31.2457 120.888 30.8012C121.221 30.3567 121.388 29.764 121.388 29.0232V21.4948H127.638ZM130.83 16.0776H137.08V36.6906H130.83V16.0776ZM147.268 21.2725C148.935 21.2725 150.379 21.6152 151.602 22.3004C152.824 22.9857 153.759 23.9672 154.408 25.2451C155.056 26.5045 155.38 27.9861 155.38 29.69C155.38 30.0418 155.371 30.3104 155.352 30.4956H145.462C145.666 31.0882 145.981 31.542 146.407 31.8568C146.851 32.1531 147.379 32.3013 147.99 32.3013C149.083 32.3013 150.111 31.8476 151.074 30.9401L154.324 34.1348C153.509 35.0423 152.519 35.7368 151.352 36.2183C150.203 36.6813 148.898 36.9128 147.435 36.9128C145.731 36.9128 144.249 36.598 142.99 35.9683C141.749 35.3201 140.795 34.4126 140.129 33.2458C139.48 32.0791 139.156 30.7178 139.156 29.1621C139.156 27.5694 139.49 26.1804 140.156 24.9951C140.823 23.8098 141.768 22.893 142.99 22.2448C144.231 21.5966 145.657 21.2725 147.268 21.2725ZM149.102 27.6064C149.139 26.9767 148.981 26.4582 148.629 26.0507C148.296 25.6433 147.861 25.4396 147.324 25.4396C146.805 25.4396 146.37 25.634 146.018 26.023C145.685 26.4119 145.453 26.9397 145.323 27.6064H149.102ZM157.193 17.2166H172.861V22.1059H163.638V25.4674H172.277V30.3567H163.638V36.6906H157.193V17.2166ZM181.108 23.7172C181.645 22.9208 182.302 22.3097 183.08 21.8837C183.876 21.4392 184.765 21.217 185.747 21.217V26.8564C185.34 26.8008 184.941 26.773 184.552 26.773C183.478 26.773 182.636 27.0138 182.024 27.4953C181.413 27.9583 181.108 28.6065 181.108 29.4399V36.6906H174.857V21.4948H181.108V23.7172ZM194.554 21.2725C196.221 21.2725 197.666 21.6152 198.888 22.3004C200.11 22.9857 201.046 23.9672 201.694 25.2451C202.342 26.5045 202.666 27.9861 202.666 29.69C202.666 30.0418 202.657 30.3104 202.638 30.4956H192.748C192.952 31.0882 193.267 31.542 193.693 31.8568C194.137 32.1531 194.665 32.3013 195.276 32.3013C196.369 32.3013 197.397 31.8476 198.36 30.9401L201.61 34.1348C200.795 35.0423 199.805 35.7368 198.638 36.2183C197.49 36.6813 196.184 36.9128 194.721 36.9128C193.017 36.9128 191.535 36.598 190.276 35.9683C189.035 35.3201 188.081 34.4126 187.415 33.2458C186.766 32.0791 186.442 30.7178 186.442 29.1621C186.442 27.5694 186.776 26.1804 187.442 24.9951C188.109 23.8098 189.054 22.893 190.276 22.2448C191.517 21.5966 192.943 21.2725 194.554 21.2725ZM196.388 27.6064C196.425 26.9767 196.267 26.4582 195.915 26.0507C195.582 25.6433 195.147 25.4396 194.61 25.4396C194.091 25.4396 193.656 25.634 193.304 26.023C192.971 26.4119 192.739 26.9397 192.61 27.6064H196.388ZM211.618 21.2725C213.285 21.2725 214.73 21.6152 215.952 22.3004C217.174 22.9857 218.11 23.9672 218.758 25.2451C219.406 26.5045 219.73 27.9861 219.73 29.69C219.73 30.0418 219.721 30.3104 219.702 30.4956H209.813C210.016 31.0882 210.331 31.542 210.757 31.8568C211.202 32.1531 211.73 32.3013 212.341 32.3013C213.433 32.3013 214.461 31.8476 215.424 30.9401L218.675 34.1348C217.86 35.0423 216.869 35.7368 215.702 36.2183C214.554 36.6813 213.248 36.9128 211.785 36.9128C210.081 36.9128 208.6 36.598 207.34 35.9683C206.099 35.3201 205.146 34.4126 204.479 33.2458C203.831 32.0791 203.507 30.7178 203.507 29.1621C203.507 27.5694 203.84 26.1804 204.507 24.9951C205.173 23.8098 206.118 22.893 207.34 22.2448C208.581 21.5966 210.007 21.2725 211.618 21.2725ZM213.452 27.6064C213.489 26.9767 213.332 26.4582 212.98 26.0507C212.646 25.6433 212.211 25.4396 211.674 25.4396C211.155 25.4396 210.72 25.634 210.368 26.023C210.035 26.4119 209.803 26.9397 209.674 27.6064H213.452ZM221.821 16.0776H228.071V36.6906H221.821V16.0776ZM238.648 21.217C240.852 21.217 242.565 21.717 243.788 22.7171C245.028 23.6987 245.649 25.0784 245.649 26.8564V36.6906H239.509V35.0515C238.583 36.3294 237.157 36.9684 235.231 36.9684C233.638 36.9684 232.388 36.5424 231.481 35.6905C230.592 34.82 230.147 33.6533 230.147 32.1902C230.147 30.69 230.647 29.5511 231.648 28.7732C232.648 27.9954 234.111 27.5879 236.037 27.5509H239.509C239.491 27.0138 239.278 26.6063 238.87 26.3285C238.482 26.0322 237.907 25.8841 237.148 25.8841C236.555 25.8841 235.842 25.9674 235.009 26.1341C234.194 26.3008 233.37 26.5415 232.537 26.8564L231.148 22.6893C232.444 22.2078 233.731 21.8467 235.009 21.6059C236.305 21.3466 237.518 21.217 238.648 21.217ZM237.398 32.9958C237.806 32.9958 238.194 32.8939 238.565 32.6902C238.954 32.4865 239.269 32.1994 239.509 31.829V30.44H237.343C236.454 30.44 236.009 30.8475 236.009 31.6624C236.009 32.0883 236.129 32.4217 236.37 32.6624C236.611 32.8847 236.954 32.9958 237.398 32.9958Z" fill="#0058D4"/>
<path d="M19.1256 6.0583L-1.90735e-06 17.0942V39.1794L19.1256 50.2197L38.2466 39.1794V17.0942L19.1256 6.0583ZM33.2018 36.2646L19.1256 44.3946L5.04484 36.2646V20.0224L19.1256 11.8924L33.2018 20.0224V36.2646Z" fill="url(#paint0_linear_3_87)"/>
<path d="M40.2466 3.56502L30.9372 12.8744L27.2422 16.5695L26.0493 17.7623L6.6278 37.1839L5.04484 36.2646V31.6368L26.4126 10.2646L36.6816 0L40.2466 3.56502Z" fill="url(#paint1_linear_3_87)"/>
<path d="M30.0717 24.9193L13.7175 41.2735L9.19731 38.6682L10.3901 37.4708L26.5067 21.3543L30.0717 24.9193Z" fill="url(#paint2_linear_3_87)"/>
<path d="M42.2197 23.9507L38.2511 27.9238L25.3946 40.7758L19.1256 44.3991L16.278 42.7578L38.2511 20.7892L38.6502 20.3856L42.2197 23.9507Z" fill="url(#paint3_linear_3_87)"/>
<path opacity="0.32" d="M10.3991 37.4709L9.20628 38.6637L13.7265 41.2735L14.9148 40.0852L10.3991 37.4709ZM6.68162 30.0045L5.05381 31.6323V36.2646L6.63677 37.1839L7.83408 35.9866L6.68162 35.3274V30.0045ZM19.1345 42.5157L17.4753 41.5471L16.278 42.7444L19.1256 44.3812L25.4036 40.7623L29.852 36.3094L19.1345 42.5157Z" fill="#020063"/>
<defs>
<linearGradient id="paint0_linear_3_87" x1="-1.90735e-06" y1="28.139" x2="38.2466" y2="28.139" gradientUnits="userSpaceOnUse">
<stop stop-color="#0058D4"/>
<stop offset="1" stop-color="#AA60FF"/>
</linearGradient>
<linearGradient id="paint1_linear_3_87" x1="5.04484" y1="18.5919" x2="40.2466" y2="18.5919" gradientUnits="userSpaceOnUse">
<stop stop-color="#AA60FF"/>
<stop offset="1" stop-color="#FF4BAE"/>
</linearGradient>
<linearGradient id="paint2_linear_3_87" x1="9.19731" y1="31.3139" x2="30.0717" y2="31.3139" gradientUnits="userSpaceOnUse">
<stop stop-color="#FFAE19"/>
<stop offset="1" stop-color="#FF4BAE"/>
</linearGradient>
<linearGradient id="paint3_linear_3_87" x1="16.278" y1="32.3901" x2="42.2197" y2="32.3901" gradientUnits="userSpaceOnUse">
<stop stop-color="#0058D4"/>
<stop offset="1" stop-color="#00D48C"/>
</linearGradient>
</defs>
</svg>
